<svg width="250" height="250" viewBox="-125 -125 250 250" role="img" aria-label="Avatar bloub animé" xmlns="http://www.w3.org/2000/svg"><defs><mask id="bot-mask-oesll8" maskUnits="userSpaceOnUse" x="-158" y="-158" width="316" height="316"><path d="M104.19 0.33C104.19 3.68 103.33 7.16 102.14 10.37C100.96 13.58 98.75 16.63 97.08 19.6C95.41 22.58 93.73 25.41 92.11 28.21C90.49 31.02 88.92 33.73 87.36 36.44C85.8 39.14 84.27 41.79 82.74 44.45C81.2 47.11 79.68 49.74 78.14 52.41C76.6 55.09 75.06 57.75 73.48 60.48C71.9 63.21 70.32 65.96 68.67 68.81C67.02 71.67 65.45 74.7 63.6 77.6C61.75 80.5 59.99 83.83 57.57 86.21C55.16 88.59 52.23 90.6 49.12 91.88C46.02 93.16 42.36 93.55 38.94 93.88C35.51 94.21 31.92 93.88 28.57 93.88C25.21 93.88 21.99 93.88 18.8 93.88C15.6 93.88 12.5 93.88 9.4 93.88C6.3 93.88 3.26 93.88 0.19 93.88C-2.88 93.88 -5.93 93.88 -9.03 93.88C-12.13 93.88 -15.23 93.88 -18.42 93.88C-21.61 93.88 -24.83 93.88 -28.19 93.88C-31.55 93.88 -35.14 94.21 -38.56 93.88C-41.99 93.55 -45.64 93.16 -48.75 91.88C-51.85 90.6 -54.79 88.59 -57.2 86.21C-59.61 83.83 -61.37 80.5 -63.22 77.6C-65.07 74.7 -66.65 71.67 -68.3 68.81C-69.94 65.96 -71.53 63.21 -73.11 60.48C-74.68 57.75 -76.22 55.09 -77.76 52.41C-79.31 49.74 -80.82 47.11 -82.36 44.45C-83.9 41.79 -85.42 39.14 -86.99 36.44C-88.55 33.73 -90.12 31.02 -91.74 28.21C-93.36 25.41 -95.03 22.58 -96.71 19.6C-98.38 16.63 -100.59 13.58 -101.77 10.37C-102.95 7.16 -103.81 3.68 -103.81 0.33C-103.81 -3.02 -102.95 -6.5 -101.77 -9.71C-100.59 -12.93 -98.38 -15.97 -96.71 -18.94C-95.03 -21.92 -93.36 -24.75 -91.74 -27.56C-90.12 -30.36 -88.55 -33.07 -86.99 -35.78C-85.42 -38.49 -83.9 -41.13 -82.36 -43.79C-80.82 -46.46 -79.31 -49.08 -77.76 -51.76C-76.22 -54.43 -74.68 -57.09 -73.11 -59.82C-71.53 -62.55 -69.94 -65.3 -68.3 -68.15C-66.65 -71.01 -65.07 -74.04 -63.22 -76.94C-61.37 -79.84 -59.61 -83.17 -57.2 -85.55C-54.79 -87.93 -51.85 -89.94 -48.75 -91.22C-45.64 -92.5 -41.99 -92.89 -38.56 -93.22C-35.14 -93.55 -31.55 -93.22 -28.19 -93.22C-24.83 -93.22 -21.61 -93.22 -18.42 -93.22C-15.23 -93.22 -12.13 -93.22 -9.03 -93.22C-5.93 -93.22 -2.88 -93.22 0.19 -93.22C3.26 -93.22 6.3 -93.22 9.4 -93.22C12.5 -93.22 15.6 -93.22 18.8 -93.22C21.99 -93.22 25.21 -93.22 28.57 -93.22C31.92 -93.22 35.51 -93.55 38.94 -93.22C42.36 -92.89 46.02 -92.5 49.12 -91.22C52.23 -89.94 55.16 -87.93 57.57 -85.55C59.99 -83.17 61.75 -79.84 63.6 -76.94C65.45 -74.04 67.02 -71.01 68.67 -68.15C70.32 -65.3 71.9 -62.55 73.48 -59.82C75.06 -57.09 76.6 -54.43 78.14 -51.76C79.68 -49.08 81.2 -46.46 82.74 -43.79C84.27 -41.13 85.8 -38.49 87.36 -35.78C88.92 -33.07 90.49 -30.36 92.11 -27.56C93.73 -24.75 95.41 -21.92 97.08 -18.94C98.75 -15.97 100.96 -12.93 102.14 -9.71C103.33 -6.5 104.19 -3.02 104.19 0.33Z" fill="#fff"/><path d="M-13.5 0A8.5 8.5 0 0 1 -5 -8.5L5 -8.5A8.5 8.5 0 0 1 13.5 0L13.5 0A8.5 8.5 0 0 1 5 8.5L-5 8.5A8.5 8.5 0 0 1 -13.5 0Z" class="oeil0" opacity="1" fill="#000"/><path d="M-13.5 0A8.5 8.5 0 0 1 -5 -8.5L5 -8.5A8.5 8.5 0 0 1 13.5 0L13.5 0A8.5 8.5 0 0 1 5 8.5L-5 8.5A8.5 8.5 0 0 1 -13.5 0Z" class="oeil1" opacity="1" fill="#000"/></mask></defs><g fill="none" stroke-linecap="round"></g><g opacity="1"><path d="M104.19 0.33C104.19 3.68 103.33 7.16 102.14 10.37C100.96 13.58 98.75 16.63 97.08 19.6C95.41 22.58 93.73 25.41 92.11 28.21C90.49 31.02 88.92 33.73 87.36 36.44C85.8 39.14 84.27 41.79 82.74 44.45C81.2 47.11 79.68 49.74 78.14 52.41C76.6 55.09 75.06 57.75 73.48 60.48C71.9 63.21 70.32 65.96 68.67 68.81C67.02 71.67 65.45 74.7 63.6 77.6C61.75 80.5 59.99 83.83 57.57 86.21C55.16 88.59 52.23 90.6 49.12 91.88C46.02 93.16 42.36 93.55 38.94 93.88C35.51 94.21 31.92 93.88 28.57 93.88C25.21 93.88 21.99 93.88 18.8 93.88C15.6 93.88 12.5 93.88 9.4 93.88C6.3 93.88 3.26 93.88 0.19 93.88C-2.88 93.88 -5.93 93.88 -9.03 93.88C-12.13 93.88 -15.23 93.88 -18.42 93.88C-21.61 93.88 -24.83 93.88 -28.19 93.88C-31.55 93.88 -35.14 94.21 -38.56 93.88C-41.99 93.55 -45.64 93.16 -48.75 91.88C-51.85 90.6 -54.79 88.59 -57.2 86.21C-59.61 83.83 -61.37 80.5 -63.22 77.6C-65.07 74.7 -66.65 71.67 -68.3 68.81C-69.94 65.96 -71.53 63.21 -73.11 60.48C-74.68 57.75 -76.22 55.09 -77.76 52.41C-79.31 49.74 -80.82 47.11 -82.36 44.45C-83.9 41.79 -85.42 39.14 -86.99 36.44C-88.55 33.73 -90.12 31.02 -91.74 28.21C-93.36 25.41 -95.03 22.58 -96.71 19.6C-98.38 16.63 -100.59 13.58 -101.77 10.37C-102.95 7.16 -103.81 3.68 -103.81 0.33C-103.81 -3.02 -102.95 -6.5 -101.77 -9.71C-100.59 -12.93 -98.38 -15.97 -96.71 -18.94C-95.03 -21.92 -93.36 -24.75 -91.74 -27.56C-90.12 -30.36 -88.55 -33.07 -86.99 -35.78C-85.42 -38.49 -83.9 -41.13 -82.36 -43.79C-80.82 -46.46 -79.31 -49.08 -77.76 -51.76C-76.22 -54.43 -74.68 -57.09 -73.11 -59.82C-71.53 -62.55 -69.94 -65.3 -68.3 -68.15C-66.65 -71.01 -65.07 -74.04 -63.22 -76.94C-61.37 -79.84 -59.61 -83.17 -57.2 -85.55C-54.79 -87.93 -51.85 -89.94 -48.75 -91.22C-45.64 -92.5 -41.99 -92.89 -38.56 -93.22C-35.14 -93.55 -31.55 -93.22 -28.19 -93.22C-24.83 -93.22 -21.61 -93.22 -18.42 -93.22C-15.23 -93.22 -12.13 -93.22 -9.03 -93.22C-5.93 -93.22 -2.88 -93.22 0.19 -93.22C3.26 -93.22 6.3 -93.22 9.4 -93.22C12.5 -93.22 15.6 -93.22 18.8 -93.22C21.99 -93.22 25.21 -93.22 28.57 -93.22C31.92 -93.22 35.51 -93.55 38.94 -93.22C42.36 -92.89 46.02 -92.5 49.12 -91.22C52.23 -89.94 55.16 -87.93 57.57 -85.55C59.99 -83.17 61.75 -79.84 63.6 -76.94C65.45 -74.04 67.02 -71.01 68.67 -68.15C70.32 -65.3 71.9 -62.55 73.48 -59.82C75.06 -57.09 76.6 -54.43 78.14 -51.76C79.68 -49.08 81.2 -46.46 82.74 -43.79C84.27 -41.13 85.8 -38.49 87.36 -35.78C88.92 -33.07 90.49 -30.36 92.11 -27.56C93.73 -24.75 95.41 -21.92 97.08 -18.94C98.75 -15.97 100.96 -12.93 102.14 -9.71C103.33 -6.5 104.19 -3.02 104.19 0.33Z" fill="#f9f9f9"/><g mask="url(#bot-mask-oesll8)"><rect x="-158" y="-158" width="316" height="316" fill="#0a0a0c"/></g></g><g></g><g fill="none" stroke-linecap="round"></g><style>.oeil0,.oeil1{transform-box:view-box;transform-origin:0 0;animation-duration:2.967s;animation-iteration-count:infinite;animation-timing-function:linear;animation-direction:alternate}.oeil0{animation-name:oeil0}.oeil1{animation-name:oeil1}@keyframes oeil0{0%{transform:matrix(0.96,0.18,-0.21,0.97,-15.41,-18.01)}1.124%{transform:matrix(0.96,0.18,-0.21,0.97,-15.42,-17.94)}2.247%{transform:matrix(0.96,0.18,-0.21,0.97,-15.43,-17.87)}3.371%{transform:matrix(0.96,0.18,-0.21,0.97,-15.45,-17.81)}4.494%{transform:matrix(0.96,0.18,-0.21,0.97,-15.48,-17.75)}5.618%{transform:matrix(0.96,0.18,-0.21,0.97,-15.52,-17.69)}6.742%{transform:matrix(0.96,0.18,-0.21,0.97,-15.56,-17.64)}7.865%{transform:matrix(0.96,0.18,-0.21,0.97,-15.62,-17.59)}8.989%{transform:matrix(0.96,0.18,-0.21,0.97,-15.67,-17.55)}10.112%{transform:matrix(0.96,0.18,-0.21,0.97,-15.74,-17.51)}11.236%{transform:matrix(0.96,0.18,-0.21,0.97,-15.81,-17.48)}12.36%{transform:matrix(0.96,0.18,-0.21,0.97,-15.88,-17.45)}13.483%{transform:matrix(0.96,0.18,-0.21,0.97,-15.96,-17.43)}14.607%{transform:matrix(0.96,0.18,-0.21,0.97,-16.04,-17.41)}15.73%{transform:matrix(0.96,0.18,-0.21,0.97,-16.12,-17.39)}16.854%{transform:matrix(0.96,0.18,-0.21,0.97,-16.2,-17.38)}17.978%{transform:matrix(0.96,0.18,-0.21,0.97,-16.28,-17.37)}19.101%{transform:matrix(0.96,0.18,-0.21,0.97,-16.36,-17.36)}20.225%{transform:matrix(0.96,0.18,-0.21,0.97,-16.44,-17.35)}21.348%{transform:matrix(0.96,0.18,-0.21,0.97,-16.51,-17.34)}22.472%{transform:matrix(0.96,0.18,-0.21,0.97,-16.57,-17.33)}23.596%{transform:matrix(0.96,0.18,-0.21,0.97,-16.64,-17.32)}24.719%{transform:matrix(0.96,0.18,-0.21,0.97,-16.69,-17.31)}25.843%{transform:matrix(0.96,0.18,-0.21,0.97,-16.74,-17.29)}26.966%{transform:matrix(0.96,0.18,-0.21,0.97,-16.79,-17.27)}28.09%{transform:matrix(0.96,0.18,-0.21,0.97,-16.83,-17.25)}29.213%{transform:matrix(0.96,0.18,-0.21,0.97,-16.87,-17.22)}30.337%{transform:matrix(0.96,0.18,-0.21,0.97,-16.91,-17.18)}31.461%{transform:matrix(0.96,0.18,-0.21,0.97,-16.94,-17.15)}32.584%{transform:matrix(0.96,0.18,-0.21,0.97,-16.98,-17.1)}33.708%{transform:matrix(0.96,0.18,-0.21,0.97,-17.01,-17.05)}34.831%{transform:matrix(0.96,0.18,-0.21,0.97,-17.05,-16.99)}35.955%{transform:matrix(0.96,0.18,-0.21,0.97,-17.09,-16.93)}37.079%{transform:matrix(0.96,0.18,-0.21,0.97,-17.13,-16.87)}38.202%{transform:matrix(0.96,0.18,-0.21,0.97,-17.18,-16.81)}39.326%{transform:matrix(0.96,0.18,-0.21,0.97,-17.24,-16.74)}40.449%{transform:matrix(0.96,0.18,-0.21,0.97,-17.31,-16.67)}41.573%{transform:matrix(0.96,0.18,-0.21,0.97,-17.38,-16.59)}42.697%{transform:matrix(0.96,0.18,-0.21,0.97,-17.46,-16.52)}43.82%{transform:matrix(0.96,0.18,-0.21,0.97,-17.54,-16.44)}44.944%{transform:matrix(0.96,0.18,-0.21,0.97,-17.64,-16.36)}46.067%{transform:matrix(0.96,0.18,-0.21,0.97,-17.74,-16.28)}47.191%{transform:matrix(0.96,0.18,-0.21,0.97,-17.84,-16.2)}48.315%{transform:matrix(0.96,0.11,-0.21,0.59,-17.95,-16.13)}49.438%{transform:matrix(0.96,0.04,-0.21,0.22,-18.06,-16.05)}50.562%{transform:matrix(0.96,0.04,-0.21,0.23,-18.17,-15.98)}51.685%{transform:matrix(0.96,0.1,-0.21,0.54,-18.29,-15.91)}52.809%{transform:matrix(0.96,0.16,-0.21,0.85,-18.39,-15.84)}53.933%{transform:matrix(0.96,0.18,-0.21,0.97,-18.5,-15.78)}55.056%{transform:matrix(0.96,0.18,-0.21,0.97,-18.59,-15.71)}56.18%{transform:matrix(0.96,0.18,-0.21,0.97,-18.68,-15.65)}57.303%{transform:matrix(0.96,0.18,-0.21,0.97,-18.75,-15.59)}58.427%{transform:matrix(0.96,0.18,-0.21,0.97,-18.81,-15.54)}59.551%{transform:matrix(0.96,0.18,-0.21,0.97,-18.85,-15.48)}60.674%{transform:matrix(0.96,0.18,-0.21,0.97,-18.88,-15.43)}61.798%{transform:matrix(0.96,0.18,-0.21,0.97,-18.88,-15.37)}62.921%{transform:matrix(0.96,0.18,-0.21,0.97,-18.87,-15.32)}64.045%{transform:matrix(0.96,0.18,-0.21,0.97,-18.84,-15.26)}65.169%{transform:matrix(0.96,0.18,-0.21,0.97,-18.78,-15.2)}66.292%{transform:matrix(0.96,0.18,-0.21,0.97,-18.7,-15.14)}67.416%{transform:matrix(0.96,0.18,-0.21,0.97,-18.6,-15.07)}68.539%{transform:matrix(0.96,0.18,-0.21,0.97,-18.47,-15)}69.663%{transform:matrix(0.96,0.18,-0.21,0.97,-18.33,-14.92)}70.787%{transform:matrix(0.96,0.18,-0.21,0.97,-18.17,-14.84)}71.91%{transform:matrix(0.96,0.18,-0.21,0.97,-17.99,-14.75)}73.034%{transform:matrix(0.96,0.18,-0.21,0.97,-17.8,-14.65)}74.157%{transform:matrix(0.96,0.18,-0.21,0.97,-17.59,-14.55)}75.281%{transform:matrix(0.96,0.18,-0.21,0.97,-17.38,-14.44)}76.404%{transform:matrix(0.96,0.19,-0.21,0.97,-17.16,-14.33)}77.528%{transform:matrix(0.96,0.19,-0.21,0.97,-16.94,-14.2)}78.652%{transform:matrix(0.96,0.19,-0.21,0.97,-16.71,-14.08)}79.775%{transform:matrix(0.96,0.19,-0.21,0.97,-16.49,-13.94)}80.899%{transform:matrix(0.96,0.19,-0.21,0.97,-16.27,-13.8)}82.022%{transform:matrix(0.96,0.19,-0.21,0.97,-16.07,-13.66)}83.146%{transform:matrix(0.96,0.19,-0.21,0.97,-15.87,-13.52)}84.27%{transform:matrix(0.96,0.19,-0.21,0.97,-15.69,-13.37)}85.393%{transform:matrix(0.96,0.19,-0.21,0.97,-15.53,-13.22)}86.517%{transform:matrix(0.96,0.19,-0.21,0.97,-15.38,-13.08)}87.64%{transform:matrix(0.96,0.19,-0.21,0.97,-15.25,-12.93)}88.764%{transform:matrix(0.97,0.19,-0.21,0.97,-15.15,-12.8)}89.888%{transform:matrix(0.97,0.19,-0.21,0.97,-15.06,-12.66)}91.011%{transform:matrix(0.97,0.19,-0.21,0.97,-15,-12.54)}92.135%{transform:matrix(0.97,0.19,-0.21,0.97,-14.96,-12.42)}93.258%{transform:matrix(0.97,0.19,-0.21,0.97,-14.95,-12.32)}94.382%{transform:matrix(0.97,0.19,-0.21,0.97,-14.95,-12.23)}95.506%{transform:matrix(0.97,0.19,-0.21,0.97,-14.97,-12.15)}96.629%{transform:matrix(0.97,0.19,-0.21,0.97,-15.02,-12.09)}97.753%{transform:matrix(0.97,0.19,-0.21,0.97,-15.09,-12.05)}98.876%{transform:matrix(0.97,0.19,-0.21,0.97,-15.17,-12.02)}100%{transform:matrix(0.97,0.19,-0.21,0.97,-15.26,-12.02)}}@keyframes oeil1{0%{transform:matrix(0.87,-0.18,0.25,0.97,39.94,-17.07)}1.124%{transform:matrix(0.87,-0.18,0.25,0.97,39.93,-17.02)}2.247%{transform:matrix(0.87,-0.18,0.25,0.97,39.91,-16.98)}3.371%{transform:matrix(0.87,-0.18,0.25,0.97,39.88,-16.95)}4.494%{transform:matrix(0.87,-0.18,0.25,0.97,39.84,-16.92)}5.618%{transform:matrix(0.87,-0.18,0.25,0.97,39.8,-16.89)}6.742%{transform:matrix(0.87,-0.18,0.25,0.97,39.75,-16.87)}7.865%{transform:matrix(0.87,-0.19,0.25,0.97,39.69,-16.85)}8.989%{transform:matrix(0.87,-0.19,0.25,0.97,39.62,-16.84)}10.112%{transform:matrix(0.87,-0.19,0.25,0.97,39.55,-16.83)}11.236%{transform:matrix(0.87,-0.19,0.25,0.97,39.47,-16.83)}12.36%{transform:matrix(0.88,-0.19,0.25,0.97,39.39,-16.83)}13.483%{transform:matrix(0.88,-0.19,0.25,0.97,39.3,-16.84)}14.607%{transform:matrix(0.88,-0.19,0.25,0.97,39.21,-16.84)}15.73%{transform:matrix(0.88,-0.19,0.25,0.97,39.12,-16.85)}16.854%{transform:matrix(0.88,-0.19,0.25,0.97,39.03,-16.87)}17.978%{transform:matrix(0.88,-0.19,0.25,0.97,38.95,-16.88)}19.101%{transform:matrix(0.88,-0.19,0.25,0.97,38.86,-16.89)}20.225%{transform:matrix(0.88,-0.19,0.25,0.97,38.78,-16.91)}21.348%{transform:matrix(0.88,-0.19,0.25,0.97,38.7,-16.92)}22.472%{transform:matrix(0.88,-0.19,0.25,0.97,38.63,-16.93)}23.596%{transform:matrix(0.88,-0.19,0.25,0.97,38.56,-16.94)}24.719%{transform:matrix(0.88,-0.19,0.25,0.97,38.5,-16.94)}25.843%{transform:matrix(0.88,-0.19,0.25,0.97,38.44,-16.94)}26.966%{transform:matrix(0.88,-0.19,0.25,0.97,38.39,-16.94)}28.09%{transform:matrix(0.88,-0.19,0.25,0.96,38.34,-16.93)}29.213%{transform:matrix(0.88,-0.19,0.25,0.96,38.29,-16.92)}30.337%{transform:matrix(0.88,-0.19,0.25,0.96,38.25,-16.91)}31.461%{transform:matrix(0.88,-0.19,0.25,0.96,38.21,-16.89)}32.584%{transform:matrix(0.88,-0.19,0.25,0.96,38.17,-16.86)}33.708%{transform:matrix(0.88,-0.19,0.25,0.96,38.13,-16.83)}34.831%{transform:matrix(0.88,-0.19,0.25,0.97,38.08,-16.8)}35.955%{transform:matrix(0.88,-0.19,0.25,0.97,38.04,-16.76)}37.079%{transform:matrix(0.88,-0.19,0.25,0.97,37.99,-16.71)}38.202%{transform:matrix(0.88,-0.19,0.25,0.97,37.93,-16.67)}39.326%{transform:matrix(0.88,-0.19,0.25,0.97,37.87,-16.62)}40.449%{transform:matrix(0.88,-0.19,0.25,0.97,37.8,-16.57)}41.573%{transform:matrix(0.88,-0.19,0.25,0.97,37.72,-16.52)}42.697%{transform:matrix(0.88,-0.19,0.25,0.97,37.63,-16.46)}43.82%{transform:matrix(0.88,-0.19,0.25,0.97,37.54,-16.41)}44.944%{transform:matrix(0.88,-0.19,0.25,0.97,37.44,-16.35)}46.067%{transform:matrix(0.88,-0.19,0.25,0.97,37.33,-16.3)}47.191%{transform:matrix(0.88,-0.19,0.25,0.97,37.21,-16.24)}48.315%{transform:matrix(0.89,-0.12,0.25,0.59,37.1,-16.19)}49.438%{transform:matrix(0.89,-0.04,0.25,0.22,36.97,-16.14)}50.562%{transform:matrix(0.89,-0.05,0.25,0.23,36.85,-16.09)}51.685%{transform:matrix(0.89,-0.11,0.25,0.54,36.73,-16.04)}52.809%{transform:matrix(0.89,-0.17,0.25,0.84,36.61,-16)}53.933%{transform:matrix(0.89,-0.19,0.25,0.97,36.5,-15.96)}55.056%{transform:matrix(0.89,-0.19,0.25,0.97,36.39,-15.91)}56.18%{transform:matrix(0.89,-0.19,0.25,0.97,36.3,-15.87)}57.303%{transform:matrix(0.89,-0.19,0.25,0.97,36.21,-15.83)}58.427%{transform:matrix(0.89,-0.2,0.25,0.97,36.15,-15.79)}59.551%{transform:matrix(0.89,-0.2,0.25,0.97,36.1,-15.75)}60.674%{transform:matrix(0.89,-0.2,0.25,0.97,36.07,-15.71)}61.798%{transform:matrix(0.89,-0.2,0.25,0.97,36.05,-15.67)}62.921%{transform:matrix(0.89,-0.2,0.25,0.97,36.07,-15.62)}64.045%{transform:matrix(0.89,-0.2,0.25,0.97,36.1,-15.58)}65.169%{transform:matrix(0.89,-0.2,0.25,0.97,36.16,-15.52)}66.292%{transform:matrix(0.89,-0.2,0.25,0.97,36.24,-15.47)}67.416%{transform:matrix(0.89,-0.2,0.25,0.97,36.34,-15.41)}68.539%{transform:matrix(0.89,-0.2,0.25,0.97,36.47,-15.35)}69.663%{transform:matrix(0.89,-0.2,0.25,0.97,36.61,-15.27)}70.787%{transform:matrix(0.89,-0.2,0.25,0.97,36.78,-15.2)}71.91%{transform:matrix(0.89,-0.2,0.25,0.97,36.97,-15.12)}73.034%{transform:matrix(0.89,-0.2,0.25,0.97,37.19,-15.03)}74.157%{transform:matrix(0.88,-0.2,0.25,0.97,37.41,-14.94)}75.281%{transform:matrix(0.88,-0.2,0.25,0.97,37.65,-14.85)}76.404%{transform:matrix(0.88,-0.2,0.25,0.97,37.89,-14.75)}77.528%{transform:matrix(0.88,-0.2,0.25,0.97,38.14,-14.64)}78.652%{transform:matrix(0.88,-0.2,0.25,0.97,38.39,-14.52)}79.775%{transform:matrix(0.88,-0.2,0.25,0.97,38.63,-14.41)}80.899%{transform:matrix(0.88,-0.2,0.25,0.97,38.87,-14.29)}82.022%{transform:matrix(0.88,-0.2,0.25,0.97,39.1,-14.16)}83.146%{transform:matrix(0.88,-0.2,0.25,0.97,39.31,-14.04)}84.27%{transform:matrix(0.87,-0.21,0.25,0.97,39.51,-13.91)}85.393%{transform:matrix(0.87,-0.21,0.25,0.97,39.7,-13.78)}86.517%{transform:matrix(0.87,-0.21,0.25,0.97,39.86,-13.66)}87.64%{transform:matrix(0.87,-0.21,0.25,0.97,40,-13.54)}88.764%{transform:matrix(0.87,-0.21,0.25,0.97,40.11,-13.43)}89.888%{transform:matrix(0.87,-0.21,0.25,0.97,40.21,-13.33)}91.011%{transform:matrix(0.87,-0.21,0.25,0.97,40.27,-13.23)}92.135%{transform:matrix(0.87,-0.21,0.25,0.97,40.32,-13.14)}93.258%{transform:matrix(0.87,-0.21,0.25,0.97,40.34,-13.07)}94.382%{transform:matrix(0.87,-0.21,0.25,0.97,40.33,-13)}95.506%{transform:matrix(0.87,-0.21,0.25,0.97,40.31,-12.95)}96.629%{transform:matrix(0.87,-0.21,0.25,0.97,40.26,-12.92)}97.753%{transform:matrix(0.87,-0.21,0.25,0.97,40.19,-12.9)}98.876%{transform:matrix(0.87,-0.21,0.25,0.97,40.11,-12.9)}100%{transform:matrix(0.87,-0.21,0.25,0.97,40.01,-12.91)}}</style></svg>